<svg width="30" height="30" viewBox="0 0 30 30" fill="none" xmlns="http://www.w3.org/2000/svg">
<path d="M27.8571 0C26.7857 0 19.2857 1.875 19.2857 10.3125V16.875C19.2857 18.9434 21.2076 20.625 23.5714 20.625H25.7143V28.125C25.7143 29.1621 26.6719 30 27.8571 30C29.0424 30 30 29.1621 30 28.125V1.875C30 0.837891 29.0424 0 27.8571 0ZM4.28571 0.9375C4.28571 0.457031 3.87723 0.0585938 3.32812 0.00585938C2.77902 -0.046875 2.29018 0.269531 2.16964 0.732422L0.140625 8.71875C0.046875 9.08789 0 9.46289 0 9.83789C0 12.5273 2.35045 14.7363 5.35714 14.9766V28.125C5.35714 29.1621 6.31473 30 7.5 30C8.68527 30 9.64286 29.1621 9.64286 28.125V14.9766C12.6496 14.7363 15 12.5273 15 9.83789C15 9.46289 14.9531 9.08789 14.8594 8.71875L12.8304 0.732422C12.7098 0.263672 12.2076 -0.046875 11.6652 0.00585938C11.1228 0.0585938 10.7143 0.457031 10.7143 0.9375V8.80078C10.7143 9.11719 10.4196 9.375 10.058 9.375C9.71652 9.375 9.43527 9.14648 9.40178 8.84766L8.56473 0.855469C8.51786 0.369141 8.0558 0 7.5 0C6.9442 0 6.48214 0.369141 6.43527 0.855469L5.60491 8.84766C5.57143 9.14648 5.29018 9.375 4.94866 9.375C4.58705 9.375 4.29241 9.11719 4.29241 8.80078L4.28571 0.9375ZM7.52009 9.84375H7.47991L7.5 9.80273L7.52009 9.84375Z" fill="black"/>
</svg>
